<?xml version="1.0" encoding="UTF-8"?>
<!DOCTYPE svg PUBLIC "-//W3C//DTD SVG 1.1//EN" "http://www.w3.org/Graphics/SVG/1.1/DTD/svg11.dtd">
<!-- Creator: CorelDRAW -->
<?xml-stylesheet href="icone_dores_2.css" type="text/css"?>
<svg xmlns="http://www.w3.org/2000/svg" xml:space="preserve" width="4.9027mm" height="5.7954mm" version="1.1" style="shape-rendering:geometricPrecision; text-rendering:geometricPrecision; image-rendering:optimizeQuality; fill-rule:evenodd; clip-rule:evenodd"
viewBox="0 0 89.23 105.48"
 xmlns:xlink="http://www.w3.org/1999/xlink"
 xmlns:xodm="http://www.corel.com/coreldraw/odm/2003">
 <g id="Camada_x0020_1">
  <metadata id="CorelCorpID_0Corel-Layer"/>
  <path class="fil0" d="M53.21 22.7c3.36,6.1 -0.83,2.92 4.23,6.53 1.19,-6.36 2.63,-13.09 -3.73,-16.48 -19.02,-10.16 -57.87,39.03 -40.84,50.2 7.05,4.63 29.79,2.18 39.47,2.18 7.18,25.23 1.37,43.25 18.51,39.96 3.5,-8.06 -2.54,-45.41 -8.48,-53.04 -7.15,-2.43 -16.92,-1.19 -24.94,-1.19 2.4,-4.65 5.34,-7.44 10.08,-10.54 -0.41,-5 -2.88,-12.1 -2.88,-14.84 0.01,-5.45 4.88,-8.45 8.6,-2.77z"/>
  <path class="fil0" d="M-0 104.21l46.95 0.07 -5.52 -34.35c-7.52,-2.24 -27.32,-1.43 -35.71,-0.58l-5.72 34.85z"/>
  <path class="fil0" d="M71.18 20.27c2.01,-4.87 -4.08,-2.26 3.58,-3.66 1.69,-0.31 3.22,0.85 4.17,1.89 2.07,2.28 1.42,6.35 1.29,9.24 24.59,-14.68 -7.84,-40.4 -17.94,-20.46 -4.08,8.06 -0.7,13.66 2.93,18.46 5.34,-1.09 2.11,-0.97 5.97,-5.48z"/>
  <path class="fil0" d="M71.18 20.27c-1.65,7.67 -6.88,15.75 -9.91,20.95 -2.44,-1.69 -3.33,-1.63 -5.56,-7.22 -1.45,-3.64 -2.14,-7.11 -2.49,-11.29 -15.52,-7.84 -4.09,19.47 1.08,23.66 11.41,9.27 18.51,-8.61 21.94,-16.9 1.4,-7.02 4.58,-12.04 -5.05,-9.19z"/>
 </g>
</svg>
