<?xml version="1.0" encoding="UTF-8"?>
<!DOCTYPE svg PUBLIC "-//W3C//DTD SVG 1.1//EN" "http://www.w3.org/Graphics/SVG/1.1/DTD/svg11.dtd">
<!-- Creator: CorelDRAW -->
<?xml-stylesheet href="icone_dores_3.css" type="text/css"?>
<svg xmlns="http://www.w3.org/2000/svg" xml:space="preserve" width="5.952mm" height="4.3498mm" version="1.1" style="shape-rendering:geometricPrecision; text-rendering:geometricPrecision; image-rendering:optimizeQuality; fill-rule:evenodd; clip-rule:evenodd"
viewBox="0 0 93.7 68.47"
 xmlns:xlink="http://www.w3.org/1999/xlink"
 xmlns:xodm="http://www.corel.com/coreldraw/odm/2003">
 <g id="Camada_x0020_1">
  <metadata id="CorelCorpID_0Corel-Layer"/>
  <path class="fil0" d="M22.06 48.99c0,22.44 -0.06,19.33 36.6,19.33 13.53,0 12.61,-5.97 12.61,-18 0,-12.21 -1.23,-12.77 -7.28,-19.76 -2.44,0.81 -19.46,15.77 -32.7,-0.41 -7.35,3.72 -9.23,8.86 -9.23,18.84z"/>
  <path class="fil0" d="M40.01 2.08c-18.62,10 -5.04,35.78 13.73,27.4 16.86,-7.53 5.22,-37.58 -13.73,-27.4z"/>
  <path class="fil0" d="M72.94 9.63c-14.65,2.65 -10.44,24.03 3.74,21.35 13.83,-2.61 10.28,-23.89 -3.74,-21.35z"/>
  <path class="fil0" d="M16.96 9.63c-14.65,2.65 -10.44,24.03 3.74,21.35 13.83,-2.61 10.28,-23.89 -3.74,-21.35z"/>
  <path class="fil0" d="M-0 42.33c0,11.86 2.87,14.61 15.69,13.34l0.86 -17.37 -12.23 -7.71c-0.24,-0.18 -0.64,-0.49 -0.98,-0.72 -1.53,3.3 -3.34,6.85 -3.34,12.45z"/>
  <path class="fil0" d="M76.35 38.33l1.58 17.32c20.63,2.14 16.69,-15.75 12.05,-25.78 -0.34,0.22 -0.81,0.18 -0.98,0.72l-2.73 2.05c-5.82,4.31 -7.16,3.55 -9.92,5.69z"/>
 </g>
</svg>
