<?xml version="1.0" encoding="UTF-8"?>
<!DOCTYPE svg PUBLIC "-//W3C//DTD SVG 1.1//EN" "http://www.w3.org/Graphics/SVG/1.1/DTD/svg11.dtd">
<!-- Creator: CorelDRAW -->
<?xml-stylesheet href="icon_dores_1.css" type="text/css"?>
<svg xmlns="http://www.w3.org/2000/svg" xml:space="preserve" width="5.8343mm" height="4.6865mm" version="1.1" style="shape-rendering:geometricPrecision; text-rendering:geometricPrecision; image-rendering:optimizeQuality; fill-rule:evenodd; clip-rule:evenodd"
viewBox="0 0 610.13 490.1"
 xmlns:xlink="http://www.w3.org/1999/xlink"
 xmlns:xodm="http://www.corel.com/coreldraw/odm/2003">
 <g id="Camada_x0020_1">
  <metadata id="CorelCorpID_0Corel-Layer"/>
  <path class="fil0" d="M449.31 326.24l-4.21 73.36c-34.02,-16.69 -35.32,-31.96 -79.85,-43.8 -56.62,31.04 -31.78,38.17 -63.07,70.9 -41.4,43.32 -78.91,-25.11 -81.29,58.91l284.29 4.49c27.89,-34.74 31.48,-71.46 41.83,-121.07 16.25,42.11 14.8,92.95 39.58,119.62 49.38,-19.46 14.27,-145.61 -42.92,-177.41 -35.61,-19.81 -73.15,-21.9 -116.4,-26.73 -63.45,-7.1 -51.52,-45.77 -103.39,-30.67 -2.84,60.28 75.19,72.45 125.44,72.4zm-98.66 116.36l65.2 0c-21.3,-15.9 -18.3,-23.52 -49.96,-32.5 -19.34,27.92 -6.8,-6.68 -15.25,32.5z"/>
  <path class="fil0" d="M7.98 485.21c51.89,9.74 92.54,-123.96 96.03,-167.51 53.01,43.58 26.09,59.71 23,120.05 -0.77,15.17 -1.73,9.09 1.02,23.57 3.69,19.42 0.1,9 7.9,19.85 46.89,23.74 53.22,-91.68 45.95,-132.8 -13.15,-74.48 -61.27,-30.29 -15.81,-137.24l76.77 39.99c40.88,3.83 17.08,4.94 35,-9.05 -8.88,-60.11 -39.21,-16.22 -80.34,-62.37 -34.23,-38.41 7.67,-72.46 -73.31,-77.2 -95.23,91.29 -36.77,184.53 -90.78,285.62 -47.71,89.28 -30.54,76.65 -29.84,82.13l4.4 14.94z"/>
  <path class="fil0" d="M179.31 98.32c20.62,0 33.12,-6.33 47.07,-12.57 11.55,-43.42 2.11,-103.08 -61.87,-80.99 -51.13,17.66 -21.52,93.56 14.8,93.56z"/>
  <path class="fil0" d="M503.6 193.38c-52.02,27.67 -22.69,112.83 40.61,86.4 57.62,-24.04 14.67,-115.82 -40.61,-86.4z"/>
 </g>
</svg>
